<mxfile host="app.diagrams.net" modified="2024-03-26T16:08:48.797Z" agent="Mozilla/5.0 (Windows NT 10.0; Win64; x64) AppleWebKit/537.36 (KHTML, like Gecko) Chrome/123.0.0.0 Safari/537.36" etag="2jhKnPj9YDRmhcMkGENd" version="24.0.6" type="device">
  <diagram name="หน้า-1" id="TkGlzdMm7sgDq_rXZbFi">
    <mxGraphModel dx="2261" dy="738" grid="1" gridSize="10" guides="1" tooltips="1" connect="1" arrows="1" fold="1" page="1" pageScale="1" pageWidth="827" pageHeight="1169" math="0" shadow="0">
      <root>
        <mxCell id="0" />
        <mxCell id="1" parent="0" />
        <mxCell id="1zaa0jxEGv0U6aiYZY-B-2" value="" style="edgeStyle=orthogonalEdgeStyle;rounded=0;orthogonalLoop=1;jettySize=auto;html=1;exitX=0.5;exitY=1;exitDx=0;exitDy=0;exitPerimeter=0;" parent="1" source="h4A4DJFyEhcsKV__63Zm-1" target="1zaa0jxEGv0U6aiYZY-B-1" edge="1">
          <mxGeometry relative="1" as="geometry">
            <mxPoint x="630" y="240" as="sourcePoint" />
          </mxGeometry>
        </mxCell>
        <mxCell id="h4A4DJFyEhcsKV__63Zm-1" value="&lt;font style=&quot;font-size: 21px;&quot;&gt;&lt;b&gt;Start&lt;/b&gt;&lt;/font&gt;" style="strokeWidth=2;html=1;shape=mxgraph.flowchart.terminator;whiteSpace=wrap;" parent="1" vertex="1">
          <mxGeometry x="500" y="80" width="260" height="120" as="geometry" />
        </mxCell>
        <mxCell id="h4A4DJFyEhcsKV__63Zm-6" style="edgeStyle=orthogonalEdgeStyle;rounded=0;orthogonalLoop=1;jettySize=auto;html=1;entryX=0.5;entryY=0;entryDx=0;entryDy=0;" parent="1" source="h4A4DJFyEhcsKV__63Zm-2" target="h4A4DJFyEhcsKV__63Zm-5" edge="1">
          <mxGeometry relative="1" as="geometry" />
        </mxCell>
        <mxCell id="h4A4DJFyEhcsKV__63Zm-2" value="&lt;font style=&quot;font-size: 16px;&quot;&gt;print&amp;nbsp;&lt;/font&gt;&lt;div&gt;&lt;span style=&quot;font-family: Consolas, &amp;quot;Courier New&amp;quot;, monospace; white-space: pre;&quot;&gt;&lt;font style=&quot;font-size: 16px;&quot;&gt;&quot;&lt;/font&gt;&lt;/span&gt;&lt;span style=&quot;font-family: Consolas, &amp;quot;Courier New&amp;quot;, monospace; font-size: 14px; white-space: pre;&quot;&gt;คำนวณพื้นที่ของรูปสี่เหลี่ยมจัตุรัส&lt;/span&gt;&lt;span style=&quot;font-size: 16px; font-family: Consolas, &amp;quot;Courier New&amp;quot;, monospace; white-space: pre;&quot;&gt;&quot;&lt;/span&gt;&lt;br&gt;&lt;/div&gt;" style="strokeWidth=2;html=1;shape=mxgraph.flowchart.display;whiteSpace=wrap;" parent="1" vertex="1">
          <mxGeometry x="500" y="440" width="260" height="120" as="geometry" />
        </mxCell>
        <mxCell id="h4A4DJFyEhcsKV__63Zm-8" value="" style="edgeStyle=orthogonalEdgeStyle;rounded=0;orthogonalLoop=1;jettySize=auto;html=1;" parent="1" source="h4A4DJFyEhcsKV__63Zm-5" target="h4A4DJFyEhcsKV__63Zm-7" edge="1">
          <mxGeometry relative="1" as="geometry" />
        </mxCell>
        <mxCell id="h4A4DJFyEhcsKV__63Zm-5" value="&lt;div style=&quot;font-size: 16px;&quot;&gt;&lt;div style=&quot;font-family: Consolas, &amp;quot;Courier New&amp;quot;, monospace; font-size: 14px; line-height: 19px; white-space: pre;&quot;&gt;sisi&lt;/div&gt;&lt;/div&gt;" style="html=1;strokeWidth=2;shape=manualInput;whiteSpace=wrap;rounded=1;size=26;arcSize=11;" parent="1" vertex="1">
          <mxGeometry x="500" y="600" width="260" height="120" as="geometry" />
        </mxCell>
        <mxCell id="h4A4DJFyEhcsKV__63Zm-10" value="" style="edgeStyle=orthogonalEdgeStyle;rounded=0;orthogonalLoop=1;jettySize=auto;html=1;" parent="1" source="h4A4DJFyEhcsKV__63Zm-7" target="h4A4DJFyEhcsKV__63Zm-9" edge="1">
          <mxGeometry relative="1" as="geometry" />
        </mxCell>
        <mxCell id="h4A4DJFyEhcsKV__63Zm-7" value="&lt;div style=&quot;font-family: Consolas, &amp;quot;Courier New&amp;quot;, monospace; font-size: 16px; line-height: 19px; white-space: pre;&quot;&gt;&lt;div style=&quot;font-size: 14px; line-height: 19px;&quot;&gt;&lt;div style=&quot;&quot;&gt;&amp;nbsp; area = sisi ** 2&lt;/div&gt;&lt;/div&gt;&lt;/div&gt;" style="rounded=1;whiteSpace=wrap;html=1;strokeWidth=2;arcSize=11;" parent="1" vertex="1">
          <mxGeometry x="445" y="760" width="370" height="120" as="geometry" />
        </mxCell>
        <mxCell id="1zaa0jxEGv0U6aiYZY-B-19" value="" style="edgeStyle=orthogonalEdgeStyle;rounded=0;orthogonalLoop=1;jettySize=auto;html=1;" parent="1" source="h4A4DJFyEhcsKV__63Zm-9" target="1zaa0jxEGv0U6aiYZY-B-5" edge="1">
          <mxGeometry relative="1" as="geometry" />
        </mxCell>
        <mxCell id="h4A4DJFyEhcsKV__63Zm-9" value="&lt;font style=&quot;font-size: 16px;&quot;&gt;print&amp;nbsp;&lt;/font&gt;&lt;div&gt;&lt;div style=&quot;font-family: Consolas, &amp;quot;Courier New&amp;quot;, monospace; font-size: 14px; line-height: 19px; white-space: pre;&quot;&gt;&quot; &amp;nbsp;พื้นที่ของรูปสี่เหลี่ยมจัตุรัส =&quot;, area,&lt;br&gt;&lt;/div&gt;&lt;div style=&quot;font-family: Consolas, &amp;quot;Courier New&amp;quot;, monospace; font-size: 14px; line-height: 19px; white-space: pre;&quot;&gt;&quot;-------------------------&quot; &lt;/div&gt;&lt;/div&gt;" style="strokeWidth=2;html=1;shape=mxgraph.flowchart.display;whiteSpace=wrap;" parent="1" vertex="1">
          <mxGeometry x="500" y="920" width="260" height="120" as="geometry" />
        </mxCell>
        <mxCell id="h4A4DJFyEhcsKV__63Zm-11" value="&lt;font style=&quot;font-size: 21px;&quot;&gt;&lt;b&gt;Stop&lt;/b&gt;&lt;/font&gt;" style="strokeWidth=2;html=1;shape=mxgraph.flowchart.terminator;whiteSpace=wrap;" parent="1" vertex="1">
          <mxGeometry x="500" y="1640" width="260" height="120" as="geometry" />
        </mxCell>
        <mxCell id="1zaa0jxEGv0U6aiYZY-B-3" value="" style="edgeStyle=orthogonalEdgeStyle;rounded=0;orthogonalLoop=1;jettySize=auto;html=1;" parent="1" source="1zaa0jxEGv0U6aiYZY-B-1" target="h4A4DJFyEhcsKV__63Zm-2" edge="1">
          <mxGeometry relative="1" as="geometry" />
        </mxCell>
        <mxCell id="M5wjZ6wiOGiAV_dXi8fh-2" style="edgeStyle=orthogonalEdgeStyle;rounded=0;orthogonalLoop=1;jettySize=auto;html=1;" parent="1" source="1zaa0jxEGv0U6aiYZY-B-1" edge="1">
          <mxGeometry relative="1" as="geometry">
            <mxPoint x="640" y="1060" as="targetPoint" />
            <Array as="points">
              <mxPoint x="850" y="340" />
              <mxPoint x="850" y="1060" />
            </Array>
          </mxGeometry>
        </mxCell>
        <mxCell id="1zaa0jxEGv0U6aiYZY-B-1" value="&lt;div style=&quot;font-family: Consolas, &amp;quot;Courier New&amp;quot;, monospace; font-size: 14px; line-height: 19px; white-space: pre;&quot;&gt;&lt;span style=&quot;font-size: 14px;&quot;&gt;True&lt;/span&gt;&lt;/div&gt;" style="rhombus;whiteSpace=wrap;html=1;strokeWidth=2;labelBackgroundColor=none;fontColor=default;fontSize=14;fontStyle=1" parent="1" vertex="1">
          <mxGeometry x="520" y="280" width="220" height="120" as="geometry" />
        </mxCell>
        <mxCell id="1zaa0jxEGv0U6aiYZY-B-4" value="" style="edgeStyle=orthogonalEdgeStyle;rounded=0;orthogonalLoop=1;jettySize=auto;html=1;labelBackgroundColor=none;fontColor=default;fontSize=14;fontStyle=1" parent="1" source="1zaa0jxEGv0U6aiYZY-B-5" target="1zaa0jxEGv0U6aiYZY-B-8" edge="1">
          <mxGeometry relative="1" as="geometry" />
        </mxCell>
        <mxCell id="1zaa0jxEGv0U6aiYZY-B-5" value="&lt;div style=&quot;font-family: Consolas, &amp;quot;Courier New&amp;quot;, monospace; font-size: 14px; line-height: 19px; white-space: pre;&quot;&gt;&lt;div style=&quot;line-height: 19px; font-size: 14px;&quot;&gt;&lt;span style=&quot;font-size: 14px;&quot;&gt;print&lt;/span&gt;&lt;/div&gt;&lt;/div&gt;&lt;div style=&quot;font-family: Consolas, &amp;quot;Courier New&amp;quot;, monospace; font-size: 14px; line-height: 19px; white-space: pre;&quot;&gt;&lt;div style=&quot;line-height: 19px; font-size: 14px;&quot;&gt;&lt;span style=&quot;font-size: 14px;&quot;&gt;&quot;&lt;/span&gt;&lt;span style=&quot;font-weight: normal;&quot;&gt;ต้องการคำนวณอีกครั้งหรือไม่&lt;/span&gt;&lt;span style=&quot;background-color: initial;&quot;&gt; (y/n): &quot;&lt;/span&gt;&lt;br&gt;&lt;/div&gt;&lt;/div&gt;" style="strokeWidth=2;html=1;shape=mxgraph.flowchart.display;whiteSpace=wrap;labelBackgroundColor=none;fontColor=default;fontSize=14;fontStyle=1" parent="1" vertex="1">
          <mxGeometry x="492.5" y="1080" width="275" height="120" as="geometry" />
        </mxCell>
        <mxCell id="1zaa0jxEGv0U6aiYZY-B-6" value="" style="edgeStyle=orthogonalEdgeStyle;rounded=0;orthogonalLoop=1;jettySize=auto;html=1;labelBackgroundColor=none;fontColor=default;fontSize=14;fontStyle=1" parent="1" source="1zaa0jxEGv0U6aiYZY-B-8" target="1zaa0jxEGv0U6aiYZY-B-11" edge="1">
          <mxGeometry relative="1" as="geometry" />
        </mxCell>
        <mxCell id="1zaa0jxEGv0U6aiYZY-B-7" value="" style="edgeStyle=orthogonalEdgeStyle;rounded=0;orthogonalLoop=1;jettySize=auto;html=1;labelBackgroundColor=none;fontColor=default;fontSize=14;fontStyle=1" parent="1" source="1zaa0jxEGv0U6aiYZY-B-8" target="1zaa0jxEGv0U6aiYZY-B-13" edge="1">
          <mxGeometry relative="1" as="geometry" />
        </mxCell>
        <mxCell id="1zaa0jxEGv0U6aiYZY-B-8" value="&lt;div style=&quot;font-family: Consolas, &amp;quot;Courier New&amp;quot;, monospace; font-size: 14px; line-height: 19px; white-space: pre;&quot;&gt;&lt;span style=&quot;font-size: 14px;&quot;&gt;choice &lt;/span&gt;== &lt;span style=&quot;font-size: 14px;&quot;&gt;&quot;y&quot;&lt;/span&gt;&lt;/div&gt;" style="rhombus;whiteSpace=wrap;html=1;strokeWidth=2;labelBackgroundColor=none;fontColor=default;fontSize=14;fontStyle=1" parent="1" vertex="1">
          <mxGeometry x="520" y="1240" width="220" height="120" as="geometry" />
        </mxCell>
        <mxCell id="1zaa0jxEGv0U6aiYZY-B-9" value="" style="edgeStyle=orthogonalEdgeStyle;rounded=0;orthogonalLoop=1;jettySize=auto;html=1;labelBackgroundColor=none;fontColor=default;fontSize=14;fontStyle=1" parent="1" source="1zaa0jxEGv0U6aiYZY-B-11" target="1zaa0jxEGv0U6aiYZY-B-12" edge="1">
          <mxGeometry relative="1" as="geometry" />
        </mxCell>
        <mxCell id="1zaa0jxEGv0U6aiYZY-B-10" value="" style="edgeStyle=orthogonalEdgeStyle;rounded=0;orthogonalLoop=1;jettySize=auto;html=1;labelBackgroundColor=none;fontColor=default;fontSize=14;fontStyle=1" parent="1" source="1zaa0jxEGv0U6aiYZY-B-11" target="1zaa0jxEGv0U6aiYZY-B-14" edge="1">
          <mxGeometry relative="1" as="geometry" />
        </mxCell>
        <mxCell id="1zaa0jxEGv0U6aiYZY-B-11" value="&lt;div style=&quot;font-family: Consolas, &amp;quot;Courier New&amp;quot;, monospace; font-size: 14px; line-height: 19px; white-space: pre;&quot;&gt;&lt;span style=&quot;font-size: 14px;&quot;&gt;choice &lt;/span&gt;== &lt;span style=&quot;font-size: 14px;&quot;&gt;&quot;&lt;/span&gt;&lt;span style=&quot;font-size: 14px;&quot;&gt;n&lt;/span&gt;&lt;span style=&quot;font-size: 14px;&quot;&gt;&quot;&lt;/span&gt;&lt;br style=&quot;font-size: 14px;&quot;&gt;&lt;/div&gt;" style="rhombus;whiteSpace=wrap;html=1;strokeWidth=2;labelBackgroundColor=none;fontColor=default;fontSize=14;fontStyle=1" parent="1" vertex="1">
          <mxGeometry x="250" y="1240" width="220" height="120" as="geometry" />
        </mxCell>
        <mxCell id="1zaa0jxEGv0U6aiYZY-B-23" style="edgeStyle=orthogonalEdgeStyle;rounded=0;orthogonalLoop=1;jettySize=auto;html=1;entryX=0;entryY=0.5;entryDx=0;entryDy=0;" parent="1" source="1zaa0jxEGv0U6aiYZY-B-12" target="1zaa0jxEGv0U6aiYZY-B-20" edge="1">
          <mxGeometry relative="1" as="geometry">
            <mxPoint x="596" y="1590" as="targetPoint" />
            <Array as="points">
              <mxPoint x="90" y="1580" />
            </Array>
          </mxGeometry>
        </mxCell>
        <mxCell id="1zaa0jxEGv0U6aiYZY-B-12" value="&lt;div style=&quot;font-family: Consolas, &amp;quot;Courier New&amp;quot;, monospace; font-size: 14px; line-height: 19px; white-space: pre;&quot;&gt;&lt;div style=&quot;line-height: 19px; font-size: 14px;&quot;&gt;&lt;span style=&quot;font-size: 14px;&quot;&gt;print&lt;/span&gt;&lt;/div&gt;&lt;/div&gt;&lt;div style=&quot;font-family: Consolas, &amp;quot;Courier New&amp;quot;, monospace; font-size: 14px; line-height: 19px; white-space: pre;&quot;&gt;&lt;span style=&quot;font-size: 14px;&quot;&gt;&quot;&lt;/span&gt;&lt;span style=&quot;font-size: 14px;&quot;&gt;ตัวเลือกไม่ถูกต้อง&lt;/span&gt;&lt;span style=&quot;font-size: 14px;&quot;&gt;&quot;&lt;/span&gt;&lt;br style=&quot;font-size: 14px;&quot;&gt;&lt;/div&gt;" style="strokeWidth=2;html=1;shape=mxgraph.flowchart.display;whiteSpace=wrap;labelBackgroundColor=none;fontColor=default;fontSize=14;fontStyle=1" parent="1" vertex="1">
          <mxGeometry x="-20" y="1240" width="220" height="120" as="geometry" />
        </mxCell>
        <mxCell id="1zaa0jxEGv0U6aiYZY-B-21" value="" style="edgeStyle=orthogonalEdgeStyle;rounded=0;orthogonalLoop=1;jettySize=auto;html=1;" parent="1" source="1zaa0jxEGv0U6aiYZY-B-13" target="1zaa0jxEGv0U6aiYZY-B-20" edge="1">
          <mxGeometry relative="1" as="geometry" />
        </mxCell>
        <mxCell id="1zaa0jxEGv0U6aiYZY-B-13" value="&lt;div style=&quot;font-family: Consolas, &amp;quot;Courier New&amp;quot;, monospace; font-size: 14px; line-height: 19px; white-space: pre;&quot;&gt;&lt;span style=&quot;font-size: 14px;&quot;&gt;break&lt;/span&gt;&lt;/div&gt;" style="rounded=1;whiteSpace=wrap;html=1;absoluteArcSize=1;arcSize=14;strokeWidth=2;labelBackgroundColor=none;fontColor=default;fontSize=14;fontStyle=1" parent="1" vertex="1">
          <mxGeometry x="520" y="1400" width="220" height="120" as="geometry" />
        </mxCell>
        <mxCell id="1zaa0jxEGv0U6aiYZY-B-14" value="&lt;div style=&quot;font-family: Consolas, &amp;quot;Courier New&amp;quot;, monospace; font-size: 14px; line-height: 19px; white-space: pre;&quot;&gt;&lt;div style=&quot;line-height: 19px; font-size: 14px;&quot;&gt;&lt;span style=&quot;font-size: 14px;&quot;&gt;continue&lt;/span&gt;&lt;/div&gt;&lt;/div&gt;" style="rounded=1;whiteSpace=wrap;html=1;absoluteArcSize=1;arcSize=14;strokeWidth=2;labelBackgroundColor=none;fontColor=default;fontSize=14;fontStyle=1" parent="1" vertex="1">
          <mxGeometry x="250" y="1080" width="220" height="120" as="geometry" />
        </mxCell>
        <mxCell id="1zaa0jxEGv0U6aiYZY-B-15" value="T" style="text;html=1;align=center;verticalAlign=middle;whiteSpace=wrap;rounded=0;fontSize=16;" parent="1" vertex="1">
          <mxGeometry x="630" y="1360" width="60" height="30" as="geometry" />
        </mxCell>
        <mxCell id="1zaa0jxEGv0U6aiYZY-B-16" value="T" style="text;html=1;align=center;verticalAlign=middle;whiteSpace=wrap;rounded=0;fontSize=16;" parent="1" vertex="1">
          <mxGeometry x="360" y="1210" width="60" height="30" as="geometry" />
        </mxCell>
        <mxCell id="1zaa0jxEGv0U6aiYZY-B-17" value="F" style="text;html=1;align=center;verticalAlign=middle;whiteSpace=wrap;rounded=0;fontSize=16;" parent="1" vertex="1">
          <mxGeometry x="470" y="1270" width="60" height="30" as="geometry" />
        </mxCell>
        <mxCell id="1zaa0jxEGv0U6aiYZY-B-18" value="F" style="text;html=1;align=center;verticalAlign=middle;whiteSpace=wrap;rounded=0;fontSize=16;" parent="1" vertex="1">
          <mxGeometry x="200" y="1270" width="60" height="30" as="geometry" />
        </mxCell>
        <mxCell id="1zaa0jxEGv0U6aiYZY-B-22" value="" style="edgeStyle=orthogonalEdgeStyle;rounded=0;orthogonalLoop=1;jettySize=auto;html=1;" parent="1" source="1zaa0jxEGv0U6aiYZY-B-20" target="h4A4DJFyEhcsKV__63Zm-11" edge="1">
          <mxGeometry relative="1" as="geometry" />
        </mxCell>
        <mxCell id="1zaa0jxEGv0U6aiYZY-B-20" value="" style="ellipse;whiteSpace=wrap;html=1;strokeWidth=2;labelBackgroundColor=none;fontColor=default;fontSize=14;fontStyle=1" parent="1" vertex="1">
          <mxGeometry x="610" y="1560" width="40" height="40" as="geometry" />
        </mxCell>
        <mxCell id="M5wjZ6wiOGiAV_dXi8fh-1" value="T" style="text;html=1;align=center;verticalAlign=middle;whiteSpace=wrap;rounded=0;fontSize=16;" parent="1" vertex="1">
          <mxGeometry x="580" y="400" width="60" height="30" as="geometry" />
        </mxCell>
        <mxCell id="M5wjZ6wiOGiAV_dXi8fh-3" value="F" style="text;html=1;align=center;verticalAlign=middle;whiteSpace=wrap;rounded=0;fontSize=16;" parent="1" vertex="1">
          <mxGeometry x="730" y="310" width="60" height="30" as="geometry" />
        </mxCell>
      </root>
    </mxGraphModel>
  </diagram>
</mxfile>
